PathFileType        4      (X/Y/Z)      C:\Users\pc\Desktop\IMUTRC\Sujet_05\Sujet_05_velo_60.trc         
DataRate	CameraRate	NumFrames	NumMarkers	Units	OrigDataRate	OrigDataStartFrame	OrigNumFrames
60.0	60.0	4	64	mm	60.0	604	966
Frame#	Time	pHipOrigin			pRightASI			pLeftASI			pRightCSI			pLeftCSI			pRightIschialTub			pLeftIschialTub			pSacrum			pL5SpinalProcess			pL3SpinalProcess			pT12SpinalProcess			pIJ			pT4SpinalProcess			pT8SpinalProcess			pPX			pC7SpinalProcess			pTopOfHead			pRightAuricularis			pLeftAuricularis			pBackOfHead			pRightAcromion			pLeftAcromion			pRightArmLatEpicondyle			pRightArmMedEpicondyle			pLeftArmLatEpicondyle			pLeftArmMedEpicondyle			pRightUlnarStyloid			pRightRadialStyloid			pRightOlecranon			pLeftUlnarStyloid			pLeftRadialStyloid			pLeftOlecranon			pRightTopOfHand			pRightPinky			pRightBallHand			pLeftTopOfHand			pLeftPinky			pLeftBallHand			pRightGreaterTrochanter			pRightKneeLatEpicondyle			pRightKneeMedEpicondyle			pRightPatella			pLeftGreaterTrochanter			pLeftKneeLatEpicondyle			pLeftKneeMedEpicondyle			pLeftPatella			pRightTibialTub			pRightLatMalleolus			pRightMedMalleolus			pLeftTibialTub			pLeftLatMalleolus			pLeftMedMalleolus			pRightHeelFoot			pRightFirstMetatarsal			pRightFifthMetatarsal			pRightPivotFoot			pRightHeelCenter			pRightToe			pLeftHeelFoot			pLeftFirstMetatarsal			pLeftFifthMetatarsal			pLeftPivotFoot			pLeftHeelCenter			pLeftToe			
		X1	Y1	Z1	X2	Y2	Z2	X3	Y3	Z3	X4	Y4	Z4	X5	Y5	Z5	X6	Y6	Z6	X7	Y7	Z7	X8	Y8	Z8	X9	Y9	Z9	X10	Y10	Z10	X11	Y11	Z11	X12	Y12	Z12	X13	Y13	Z13	X14	Y14	Z14	X15	Y15	Z15	X16	Y16	Z16	X17	Y17	Z17	X18	Y18	Z18	X19	Y19	Z19	X20	Y20	Z20	X21	Y21	Z21	X22	Y22	Z22	X23	Y23	Z23	X24	Y24	Z24	X25	Y25	Z25	X26	Y26	Z26	X27	Y27	Z27	X28	Y28	Z28	X29	Y29	Z29	X30	Y30	Z30	X31	Y31	Z31	X32	Y32	Z32	X33	Y33	Z33	X34	Y34	Z34	X35	Y35	Z35	X36	Y36	Z36	X37	Y37	Z37	X38	Y38	Z38	X39	Y39	Z39	X40	Y40	Z40	X41	Y41	Z41	X42	Y42	Z42	X43	Y43	Z43	X44	Y44	Z44	X45	Y45	Z45	X46	Y46	Z46	X47	Y47	Z47	X48	Y48	Z48	X49	Y49	Z49	X50	Y50	Z50	X51	Y51	Z51	X52	Y52	Z52	X53	Y53	Z53	X54	Y54	Z54	X55	Y55	Z55	X56	Y56	Z56	X57	Y57	Z57	X58	Y58	Z58	X59	Y59	Z59	X60	Y60	Z60	X61	Y61	Z61	X62	Y62	Z62	X63	Y63	Z63	X64	Y64	Z64	
604	10.05	0.0	1249.96063	7.653801422948546E-14	66.32936000000001	1340.96637	124.03127000000009	48.703379999999996	1350.24321	-125.05171999999992	20.316270000000006	1401.82241	108.44619000000009	5.658869999999994	1409.52218	-98.79827999999992	-45.45649	1192.44426	53.24903000000007	-52.78519	1196.34053	-50.37320999999993	-63.08247	1266.4734	5.102260000000081	-31.91231	1368.98241	6.029940000000085	23.65593	1476.03708	5.566100000000088	83.2132	1569.08372	4.17458000000009	343.89224	1592.73965	-6.5865499999999235	233.31238	1701.18584	-1.29875999999991	157.14957	1649.51388	1.5770600000000914	242.86752	1517.78283	-2.690279999999922	283.03621	1733.46923	-2.0408999999999113	560.32078	1787.55317	-24.026999999999926	470.14995	1742.00391	55.93931000000008	453.17335	1757.21792	-88.68652999999992	441.67007	1802.95271	-8.441919999999916	279.69655	1657.21365	194.6279800000001	279.88209	1666.76879	-195.2773599999999	352.42693	1403.49224	177.09476000000006	334.98648	1398.85382	122.63975000000008	375.0624	1426.77709	-191.47385999999995	356.69427	1416.75811	-138.13205999999994	449.92646	1186.22878	179.41397000000006	492.32159	1211.64731	186.27883000000006	320.23631	1394.02986	148.05827000000005	474.23176	1209.69917	-205.20356999999996	516.25582	1235.85984	-211.41904999999994	342.40795	1414.34613	-163.08673999999993	501.96949	1127.22812	345.00546	474.97391	1123.23908	263.09102	479.05571	1165.63421	204.36866000000006	592.14032	1161.92347	-347.04636	533.6035	1152.55387	-284.2422	512.08124	1190.95997	-226.63305999999994	26.06790000000001	1212.11115	144.4403100000001	274.03768	956.4416	80.33738000000004	277.84118	969.70747	11.224970000000042	302.79587	991.69357	50.37321000000004	14.008019999999991	1227.23239	-148.5221099999999	307.24875	1016.55548	-124.49510999999995	314.48468	1025.09017	-54.91885999999996	331.92513	1054.12666	-93.60325999999995	328.4927	939.83607	41.65299000000004	299.54897	564.30982	56.217610000000015	297.32253	566.90733	-3.3396599999999834	329.97699	973.23267	-95.73692999999996	54.362249999999996	722.85092	-153.62436999999994	55.38269999999999	715.15114	-94.43816999999996	240.54831	492.78543	30.613550000000014	391.57517	457.53346	-29.964169999999996	401.96522	453.63719	47.682930000000006	418.01415	450.3903	4.731190000000002	278.86163	486.47718	25.14022000000001	495.75402	431.55832	-6.679320000000003	-34.23152000000001	694.37103	-135.07069999999996	66.60767	569.87592	-90.17082999999997	75.42065999999998	572.93728	-168.00346999999996	85.25410999999998	554.38361	-127.09262999999997	-6.864860000000008	666.44776	-133.12256999999997	137.38991	492.78543	-123.56742999999999	
605	10.067	0.0	1249.96063	7.653801422948546E-14	66.97874000000002	1340.22423	124.30958000000008	48.14676999999999	1350.98535	-124.68064999999991	20.872880000000006	1401.17303	109.28111000000008	5.195029999999994	1410.07879	-97.77782999999991	-45.27095	1192.16595	53.06349000000007	-53.06349	1196.61883	-50.46597999999993	-63.08247	1266.38063	5.473330000000081	-31.91231	1368.88964	6.8648600000000854	23.65593	1475.94431	6.308250000000089	83.12043	1569.08372	4.73119000000009	343.79947	1593.01796	-7.143159999999924	233.03407	1701.37138	-1.66982999999991	156.87127	1649.60665	1.7626000000000914	242.77475	1517.96837	-2.597509999999922	282.85067	1733.65476	-2.5975099999999114	560.22801	1786.81102	-25.882369999999927	470.14995	1741.81838	54.455020000000076	452.61674	1756.84685	-90.07805999999991	441.76284	1802.76718	-9.833439999999916	280.25316	1657.67749	194.3496800000001	278.6761	1666.49048	-195.6484299999999	352.14862	1403.585	177.37307000000007	334.61541	1398.94659	123.01082000000007	374.22749	1426.68432	-191.28831999999994	355.95213	1416.66534	-137.76098999999994	449.27708	1186.13601	179.97058000000007	491.67221	1211.46177	186.83544000000006	319.86524	1394.2154	148.42935000000006	473.58238	1209.51363	-204.55418999999995	515.51367	1235.76707	-210.76966999999993	341.57303	1414.16059	-162.80843999999993	501.13458	1127.32088	345.56207	474.23176	1123.14631	263.74039	478.31357	1165.54144	205.01803000000007	591.49094	1161.5524	-346.21145	532.95412	1152.36834	-283.50005	511.43187	1190.8672	-225.89090999999993	24.954680000000007	1210.81239	144.4403100000001	259.10198	942.43358	80.15185000000004	263.27655	955.23561	10.946660000000042	289.52999	976.01572	49.909370000000045	14.935699999999992	1228.90222	-148.4293499999999	316.24728	1030.09966	-123.47465999999996	322.74106	1038.54158	-53.805639999999954	339.16106	1068.41299	-92.21172999999995	314.20637	925.73528	41.74575000000004	287.95293	550.11626	58.35129000000002	285.81926	552.3427	-1.2987599999999837	338.51168	986.77685	-94.53093999999996	63.54630999999999	735.74571	-152.97498999999993	64.474	728.04594	-93.78878999999996	227.74628	479.33402	32.283380000000015	378.21653	441.67007	-28.108809999999995	388.42105	437.40273	49.53829000000001	404.46997	434.06307	6.586550000000002	265.96683	472.37639	26.90282000000001	481.83876	413.93234	-4.731190000000003	-25.140220000000006	707.17307	-134.05024999999995	75.97727	582.77072	-89.24313999999995	84.51195999999999	585.73931	-167.16854999999998	94.53093999999999	567.27841	-126.25770999999997	2.319209999999992	679.2498	-132.10211999999999	146.75952	505.773	-122.82527999999999	
606	10.083	0.0	1249.96063	7.653801422948546E-14	67.53535000000001	1339.48208	124.49511000000008	47.68292999999999	1351.7275	-124.30957999999991	21.42949000000001	1400.52365	110.11602000000009	4.823949999999994	1410.6354	-96.85014999999991	-44.99265	1191.79488	52.97072000000007	-53.24903	1196.89714	-50.55874999999993	-63.08247	1266.38063	5.844410000000081	-31.81954	1368.88964	7.6070000000000855	23.65593	1475.94431	7.143160000000089	83.12043	1569.08372	5.380560000000091	343.7067	1593.20349	-7.514239999999924	232.84854	1701.46415	-1.76259999999991	156.7785	1649.69941	2.040900000000091	242.77475	1518.15391	-2.4119799999999216	282.66514	1733.8403	-3.0613599999999113	560.32078	1785.79057	-27.552199999999925	470.33549	1741.4473	53.249030000000076	452.24566	1756.38301	-91.19127999999992	441.94838	1802.48887	-11.039429999999916	280.80977	1658.2341	194.2569100000001	277.65565	1666.11941	-195.8339699999999	351.96309	1403.67777	177.92968000000005	334.24433	1398.94659	123.56743000000007	373.48534	1426.40602	-190.82447999999994	355.48828	1416.66534	-137.29714999999993	448.6277	1186.04324	180.71273000000005	491.1156	1211.27623	187.57759000000004	319.58694	1394.2154	148.98596000000006	473.02577	1209.42087	-203.71927999999994	514.95706	1235.67431	-210.02751999999995	341.01642	1414.06783	-162.25182999999996	500.4852	1127.22812	346.39699	473.58238	1123.05354	264.48254	477.75696	1165.44867	205.76018000000005	591.0271	1161.18133	-345.28377	532.49028	1152.09003	-282.57237	510.87526	1190.58889	-225.05599999999995	24.027000000000008	1209.69917	144.4403100000001	244.07351	929.72432	80.33738000000004	248.43362	941.87697	11.03943000000004	275.98582	961.54386	49.63106000000004	15.95614999999999	1230.66482	-148.3365799999999	324.68919	1043.64384	-122.08313999999996	330.2553	1052.08576	-52.32133999999996	345.84038	1082.69931	-90.44912999999994	299.64174	912.74771	42.024060000000034	274.96536	537.1287	61.04157000000002	272.92446	538.98406	1.3915300000000164	346.67529	1000.59933	-92.86110999999995	74.12189999999998	747.15622	-152.04730999999995	74.86405	739.54922	-92.86110999999995	213.27442	467.3669	34.60259000000001	363.09529	426.73437	-25.418529999999997	373.0215	422.09595	52.22858000000001	389.07042	418.47799	9.276830000000002	251.30944	459.66713	29.314800000000016	466.06815	396.67743	-1.8553700000000044	-14.471860000000008	717.65589	-132.93702999999994	87.94439	594.36676	-88.12991999999996	96.29353999999998	597.33535	-166.05532999999997	106.59081999999998	578.96722	-125.05171999999997	13.26586999999999	690.10369	-130.98889999999997	159.37601	517.92565	-121.71205999999998	
607	10.1	0.0	1249.96063	7.653801422948546E-14	67.99919000000001	1338.73993	124.77342000000009	47.219089999999994	1352.37688	-123.93849999999992	21.893330000000006	1399.87427	110.85817000000009	4.638419999999994	1411.19201	-96.01522999999992	-44.89988	1191.51658	52.78519000000007	-53.52733	1197.26821	-50.65150999999993	-62.9897	1266.38063	6.1227100000000805	-31.72677	1368.79688	8.256380000000085	23.84146	1475.94431	7.885310000000088	83.2132	1569.08372	6.0299400000000904	343.7067	1593.20349	-7.606999999999924	232.84854	1701.46415	-1.76259999999991	156.87127	1649.60665	2.411980000000091	242.86752	1518.15391	-2.040899999999922	282.7579	1733.93307	-3.154119999999911	560.59909	1784.67735	-28.850949999999926	470.70656	1740.89069	52.41411000000008	452.06013	1755.8264	-92.02618999999991	442.41222	1802.02503	-11.781579999999916	281.45915	1658.51241	194.4424400000001	276.82073	1665.65557	-195.8339699999999	351.87032	1403.585	178.67183000000006	334.0588	1398.76105	124.40235000000007	373.0215	1426.12771	-190.26786999999993	355.11721	1416.4798	-136.64776999999995	448.34939	1185.76494	181.54764000000006	490.83729	1210.99793	188.41250000000005	319.49417	1394.12263	149.72810000000007	472.6547	1209.14256	-202.79158999999996	514.67876	1235.396	-209.09983999999994	340.55258	1413.88229	-161.69521999999995	500.11413	1127.04258	347.2319	473.21131	1122.868	265.41022	477.38588	1165.17037	206.59510000000006	590.84157	1160.62472	-344.17055	532.21197	1151.62619	-281.45915	510.50418	1190.40336	-224.03553999999994	23.192090000000007	1208.86426	144.5330800000001	230.06549	918.87042	80.89399000000004	234.4256	930.37369	11.503270000000043	263.09102	949.02013	49.816600000000044	16.97660999999999	1232.42741	-148.2438099999999	332.38897	1057.18802	-120.41330999999994	337.12015	1065.4444	-50.55874999999996	351.87032	1096.8001	-88.50099999999996	285.91203	901.24444	42.487900000000046	261.32842	525.71819	64.28846000000001	259.10198	527.20248	4.638420000000016	354.46783	1014.32904	-91.00573999999997	85.53240999999998	757.08243	-150.65578999999994	86.27456	749.5682	-91.46957999999995	197.96764	457.25515	37.663950000000014	346.9536	413.28296	-22.171629999999997	356.6015	408.27347	55.56824000000001	372.7432	404.3772	12.616490000000002	235.81712	448.6277	32.46892000000001	449.18431	380.90681	1.6698299999999957	-2.597510000000008	726.28334	-131.35996999999995	101.85964	604.75682	-86.46008999999995	110.11601999999999	607.63264	-164.38549999999998	120.69160999999998	589.54281	-123.47465999999997	25.604059999999993	699.10222	-129.41183999999996	174.49725	529.42892	-120.04222999999999	
